<?xml version="1.0" standalone="no"?>
<!DOCTYPE svg PUBLIC "-//W3C//DTD SVG 20010904//EN"
 "http://www.w3.org/TR/2001/REC-SVG-20010904/DTD/svg10.dtd">
<svg version="1.0" xmlns="http://www.w3.org/2000/svg"
 width="700.000000pt" height="700.000000pt" viewBox="0 0 700.000000 700.000000"
 preserveAspectRatio="xMidYMid meet">
<metadata>
Created by potrace 1.14, written by Peter Selinger 2001-2017
</metadata>
<g transform="translate(0.000000,700.000000) scale(0.100000,-0.100000)"
fill="#000000" stroke="none">
<path d="M1790 6859 c-139 -21 -155 -24 -250 -50 -230 -61 -493 -191 -690
-340 -75 -56 -199 -165 -233 -203 -10 -12 -35 -39 -56 -61 -236 -254 -444
-681 -487 -1005 -3 -25 -8 -47 -9 -50 -16 -26 -19 -527 -20 -2675 l0 -2470
678 -3 677 -2 1 32 c0 18 0 1125 1 2460 0 2615 -2 2484 52 2617 82 201 280
362 493 401 222 40 428 -18 585 -163 105 -99 162 -191 200 -324 l22 -78 0
-2470 1 -2470 678 -3 c372 -1 677 1 678 5 0 5 2 1122 3 2483 l2 2475 32 93
c102 294 353 470 664 464 108 -3 175 -20 286 -74 101 -49 219 -159 276 -257
37 -63 80 -178 90 -236 2 -16 5 -1138 5 -2492 l1 -2463 678 0 677 0 -1 2497
c-1 1374 -4 2525 -8 2558 -9 77 -17 126 -52 293 -26 128 -163 449 -236 554
-10 14 -18 29 -18 32 0 8 -94 140 -143 201 -68 83 -247 257 -335 323 -212 162
-478 292 -727 357 -179 46 -279 58 -490 59 -227 1 -293 -5 -454 -40 -36 -8
-76 -17 -89 -20 -91 -19 -374 -136 -487 -202 -87 -50 -248 -166 -312 -226
l-32 -29 -33 26 c-240 194 -404 290 -650 378 -138 50 -240 75 -390 98 -161 25
-420 25 -578 0z"/>
</g>
</svg>
