<svg width="23" height="24" viewBox="0 0 23 24" fill="none" xmlns="http://www.w3.org/2000/svg">
<g clip-path="url(#clip0)">
<path d="M11.5 0C9.22552 0 7.00211 0.703788 5.11095 2.02236C3.21978 3.34094 1.7458 5.21509 0.87539 7.4078C0.00498273 9.60051 -0.222756 12.0133 0.220974 14.3411C0.664704 16.6689 1.75997 18.8071 3.36828 20.4853C4.97658 22.1635 7.02569 23.3064 9.25647 23.7694C11.4872 24.2324 13.7995 23.9948 15.9009 23.0866C18.0022 22.1783 19.7983 20.6402 21.0619 18.6668C22.3255 16.6935 23 14.3734 23 12C22.9967 8.81847 21.784 5.76824 19.6281 3.51856C17.4721 1.26887 14.549 0.0034741 11.5 0V0ZM11.5 22.875C9.43875 22.875 7.42379 22.2372 5.70992 21.0422C3.99605 19.8473 2.66026 18.1488 1.87145 16.1617C1.08264 14.1745 0.876253 11.9879 1.27838 9.87839C1.68051 7.76885 2.6731 5.83111 4.13063 4.31021C5.58815 2.78932 7.44515 1.75357 9.4668 1.33396C11.4884 0.914346 13.5839 1.12971 15.4883 1.95281C17.3926 2.77591 19.0203 4.16979 20.1655 5.95817C21.3106 7.74656 21.9219 9.84913 21.9219 12C21.9186 14.8832 20.8195 17.6472 18.8657 19.6859C16.9119 21.7247 14.263 22.8715 11.5 22.875Z" fill="#009688"/>
<path d="M15.7945 7.94251L9.05986 14.8538L7.21806 12.8306C7.11875 12.7266 6.98438 12.6672 6.84365 12.6651C6.70293 12.6631 6.56702 12.7185 6.46496 12.8197C6.3629 12.9208 6.30278 13.0595 6.29745 13.2063C6.29211 13.353 6.34199 13.4961 6.43642 13.605L8.65556 16.0425C8.70482 16.0965 8.76387 16.1397 8.82926 16.1696C8.89466 16.1995 8.9651 16.2156 9.0365 16.2169H9.04548C9.18665 16.2168 9.32213 16.1589 9.42283 16.0556L16.5474 8.74314C16.5979 8.6913 16.6382 8.6296 16.6658 8.56155C16.6934 8.4935 16.708 8.42043 16.7086 8.34653C16.7091 8.27262 16.6958 8.19931 16.6692 8.13079C16.6426 8.06228 16.6034 7.99989 16.5537 7.9472C16.5041 7.8945 16.4449 7.85254 16.3797 7.82369C16.3145 7.79484 16.2445 7.77968 16.1736 7.77907C16.1028 7.77846 16.0326 7.79242 15.9669 7.82014C15.9012 7.84786 15.8414 7.8888 15.791 7.94063L15.7945 7.94251Z" fill="#009688"/>
</g>
<defs>
<clipPath id="clip0">
<rect width="23" height="24" fill="white"/>
</clipPath>
</defs>
</svg>
