<svg width="24" height="24" viewBox="0 0 24 24" fill="none" xmlns="http://www.w3.org/2000/svg">
<g clip-path="url(#clip0)">
<path d="M12 0C9.6266 0 7.30652 0.703788 5.33313 2.02236C3.35974 3.34094 1.82167 5.21509 0.91342 7.4078C0.00516886 9.60051 -0.232471 12.0133 0.230552 14.3411C0.693574 16.6689 1.83646 18.8071 3.51469 20.4853C5.19292 22.1635 7.33112 23.3064 9.65889 23.7694C11.9867 24.2324 14.3995 23.9948 16.5922 23.0866C18.7849 22.1783 20.659 20.6402 21.9776 18.6668C23.2962 16.6935 24 14.3734 24 12C23.9965 8.81847 22.7311 5.76824 20.4814 3.51856C18.2317 1.26887 15.1815 0.0034741 12 0ZM12 22.875C9.8491 22.875 7.74653 22.2372 5.95815 21.0422C4.16976 19.8473 2.77589 18.1488 1.95279 16.1617C1.12968 14.1745 0.914321 11.9879 1.33393 9.87839C1.75355 7.76885 2.78929 5.83111 4.31019 4.31021C5.83108 2.78932 7.76882 1.75357 9.87837 1.33396C11.9879 0.914346 14.1745 1.12971 16.1617 1.95281C18.1488 2.77591 19.8472 4.16979 21.0422 5.95817C22.2372 7.74656 22.875 9.84913 22.875 12C22.8715 14.8832 21.7246 17.6472 19.6859 19.6859C17.6472 21.7247 14.8831 22.8715 12 22.875Z" fill="#FF5E73"/>
<path d="M17.2725 6.71062C17.167 6.60529 17.0241 6.54612 16.875 6.54612C16.7259 6.54612 16.583 6.60529 16.4775 6.71062L12 11.2031L7.52438 6.70312C7.41871 6.59745 7.27539 6.53809 7.12595 6.53809C6.9765 6.53809 6.83318 6.59745 6.72751 6.70312C6.62184 6.8088 6.56247 6.95212 6.56247 7.10156C6.56247 7.251 6.62184 7.39433 6.72751 7.5L11.205 12L6.72751 16.5C6.62208 16.6057 6.56296 16.7489 6.56313 16.8982C6.56331 17.0474 6.62277 17.1905 6.72844 17.2959C6.83412 17.4014 6.97734 17.4605 7.12661 17.4603C7.27588 17.4601 7.41896 17.4007 7.52438 17.295L12 12.7969L16.4775 17.2969C16.5832 17.4025 16.7265 17.4619 16.8759 17.4619C17.0254 17.4619 17.1687 17.4025 17.2744 17.2969C17.3801 17.1912 17.4394 17.0479 17.4394 16.8984C17.4394 16.749 17.3801 16.6057 17.2744 16.5L12.795 12L17.2744 7.5C17.3778 7.39452 17.4355 7.25262 17.4352 7.10493C17.4348 6.95724 17.3764 6.81561 17.2725 6.71062Z" fill="#FF5E73"/>
</g>
<defs>
<clipPath id="clip0">
<rect width="24" height="24" fill="white"/>
</clipPath>
</defs>
</svg>
