<svg width="30" height="29" viewBox="0 0 30 29" fill="none" xmlns="http://www.w3.org/2000/svg">
<path d="M13.7179 1.36608C14.065 0.560117 15.2077 0.560117 15.5548 1.36608L18.8997 9.13315C19.0444 9.46933 19.3613 9.69955 19.7258 9.73335L28.1463 10.5143C29.0201 10.5954 29.3732 11.6822 28.7139 12.2613L22.3606 17.8426C22.0857 18.0842 21.9646 18.4567 22.0451 18.8138L23.9044 27.0635C24.0974 27.9196 23.1729 28.5913 22.4183 28.1432L15.1469 23.8256C14.8322 23.6387 14.4405 23.6387 14.1258 23.8256L6.8544 28.1432C6.09987 28.5913 5.17537 27.9196 5.3683 27.0635L7.22764 18.8138C7.30811 18.4567 7.18708 18.0842 6.91209 17.8426L0.558783 12.2613C-0.100479 11.6822 0.252646 10.5954 1.12642 10.5143L9.54696 9.73335C9.91142 9.69955 10.2283 9.46933 10.3731 9.13315L13.7179 1.36608Z" fill="black"/>
</svg>
