<svg width="38" height="38" viewBox="0 0 38 38" fill="none" xmlns="http://www.w3.org/2000/svg">
<g clip-path="url(#clip0)">
<rect x="0.597473" y="0.705566" width="36.5566" height="36.3233" rx="16" fill="#E9FFDE"/>
<path d="M8.69919 22.6559L7.4267 27.3759L2.7758 27.4737C1.38587 24.9121 0.597473 21.9813 0.597473 18.8669C0.597473 15.8553 1.3346 13.0152 2.64122 10.5145H2.64222L6.78282 11.2688L8.59666 15.3583C8.21702 16.458 8.01011 17.6385 8.01011 18.8669C8.01025 20.2001 8.2533 21.4774 8.69919 22.6559Z" fill="#FBBB00"/>
<path d="M36.8347 15.4745C37.0446 16.5731 37.1541 17.7077 37.1541 18.8673C37.1541 20.1676 37.0165 21.4359 36.7544 22.6593C35.8646 26.8225 33.5396 30.4578 30.3189 33.0304L30.3179 33.0294L25.1025 32.765L24.3644 28.1866C26.5015 26.9413 28.1717 24.9924 29.0515 22.6593H19.2776V15.4745H29.1941H36.8347Z" fill="#518EF8"/>
<path d="M30.3178 33.0293L30.3188 33.0303C27.1864 35.532 23.2073 37.0288 18.8758 37.0288C11.915 37.0288 5.86307 33.163 2.77582 27.474L8.6992 22.6562C10.2428 26.7496 14.2168 29.6634 18.8758 29.6634C20.8783 29.6634 22.7544 29.1256 24.3643 28.1865L30.3178 33.0293Z" fill="#28B446"/>
<path d="M30.5427 4.88671L24.6213 9.70352C22.9552 8.66873 20.9857 8.07096 18.8757 8.07096C14.1113 8.07096 10.0629 11.1185 8.59669 15.3586L2.64217 10.5148H2.64117C5.68323 4.68715 11.8115 0.705566 18.8757 0.705566C23.3107 0.705566 27.3771 2.27527 30.5427 4.88671Z" fill="#F14336"/>
</g>
<defs>
<clipPath id="clip0">
<rect x="0.597473" y="0.705566" width="36.5566" height="36.3233" rx="16" fill="white"/>
</clipPath>
</defs>
</svg>
