<svg width="24" height="24" viewBox="0 0 24 24" fill="none" xmlns="http://www.w3.org/2000/svg">
<g clip-path="url(#clip0)">
<path d="M12 0C14.3734 0 16.6934 0.703788 18.6668 2.02236C20.6402 3.34094 22.1783 5.21509 23.0865 7.4078C23.9948 9.60051 24.2324 12.0133 23.7694 14.3411C23.3064 16.6689 22.1635 18.8071 20.4853 20.4853C18.807 22.1635 16.6688 23.3064 14.3411 23.7694C12.0133 24.2324 9.60051 23.9948 7.40779 23.0866C5.21508 22.1783 3.34094 20.6402 2.02236 18.6668C0.703782 16.6935 -5.72205e-06 14.3734 -5.72205e-06 12C0.00346838 8.81847 1.26887 5.76824 3.51855 3.51856C5.76823 1.26887 8.81846 0.0034741 12 0V0ZM12 22.875C14.1509 22.875 16.2534 22.2372 18.0418 21.0422C19.8302 19.8473 21.2241 18.1488 22.0472 16.1617C22.8703 14.1745 23.0856 11.9879 22.666 9.87839C22.2464 7.76885 21.2107 5.83111 19.6898 4.31021C18.1689 2.78932 16.2311 1.75357 14.1216 1.33396C12.0121 0.914346 9.82546 1.12971 7.83831 1.95281C5.85117 2.77591 4.15272 4.16979 2.95776 5.95817C1.7628 7.74656 1.12499 9.84913 1.12499 12C1.12847 14.8832 2.27534 17.6472 4.31404 19.6859C6.35275 21.7247 9.11683 22.8715 12 22.875Z" fill="#009688"/>
<path d="M10.1025 6.72749C10.208 6.62216 10.3509 6.56299 10.5 6.56299C10.6491 6.56299 10.792 6.62216 10.8975 6.72749L15.7725 11.6025C15.8778 11.708 15.937 11.8509 15.937 12C15.937 12.1491 15.8778 12.292 15.7725 12.3975L10.8975 17.2725C10.7909 17.3718 10.6498 17.4259 10.5041 17.4234C10.3584 17.4208 10.2194 17.3618 10.1163 17.2587C10.0132 17.1556 9.9542 17.0166 9.95163 16.8709C9.94906 16.7252 10.0031 16.5841 10.1025 16.4775L14.58 12L10.1025 7.52249C9.99717 7.41702 9.938 7.27406 9.938 7.12499C9.938 6.97593 9.99717 6.83296 10.1025 6.72749V6.72749Z" fill="#009688"/>
</g>
<defs>
<clipPath id="clip0">
<rect width="24" height="24" fill="white" transform="matrix(-1 0 0 1 24 0)"/>
</clipPath>
</defs>
</svg>
