<svg width="35" height="35" viewBox="0 0 35 35" fill="none" xmlns="http://www.w3.org/2000/svg">
<circle cx="17.5" cy="17.5" r="17.5" fill="#E9FFDE"/>
<circle cx="17.5" cy="17.5" r="15" stroke="#046D63"/>
<path fill-rule="evenodd" clip-rule="evenodd" d="M17.047 11.0472C17.4376 10.6566 18.0707 10.6566 18.4613 11.0472L24.4583 17.0442C24.7302 17.3161 24.8128 17.7056 24.7061 18.0489C24.7693 18.3656 24.6781 18.707 24.4326 18.9525L18.2361 25.1491C17.8455 25.5396 17.2124 25.5396 16.8219 25.1491C16.4313 24.7585 16.4313 24.1254 16.8219 23.7349L21.5567 19L11 19C10.4477 19 10 18.5523 10 18C10 17.4477 10.4477 17 11 17L21.5857 17L17.047 12.4614C16.6565 12.0709 16.6565 11.4377 17.047 11.0472Z" fill="#009688"/>
</svg>
