<?xml version="1.0" encoding="utf-8"?>
<!-- Svg Vector Icons : http://www.onlinewebfonts.com/icon -->
<!DOCTYPE svg PUBLIC "-//W3C//DTD SVG 1.1//EN" "http://www.w3.org/Graphics/SVG/1.1/DTD/svg11.dtd">
<svg version="1.1" xmlns="http://www.w3.org/2000/svg" xmlns:xlink="http://www.w3.org/1999/xlink" x="0px" y="0px" viewBox="0 0 1000 1000" enable-background="new 0 0 1000 1000" xml:space="preserve">
<metadata> Svg Vector Icons : http://www.onlinewebfonts.com/icon </metadata>
<g><path d="M745,304c0,54.2-43.8,98-98,98c-54.1,0-98-43.8-98-98s43.8-98,98-98C701.1,206,745,249.8,745,304z M990,206v588.1c0,108.2-87.7,196-195.9,196H205.9C97.7,990.1,10,902.3,10,794.1V206C10,97.7,97.7,9.9,205.9,9.9h588.2C902.3,9.9,990,97.7,990,206z M892,255c0-81.2-65.9-147.1-147.1-147.1H255c-81.3,0-147.1,65.9-147.1,147.1v392L353,401.9l222.8,267.3L745,500L892,683.8V255z"/></g>
</svg>