<svg width="13" height="12" viewBox="0 0 13 12" fill="none" xmlns="http://www.w3.org/2000/svg">
<path d="M4.59504 1.49591C4.97057 -0.486117 7.8178 -0.486117 8.19333 1.49591C8.37035 2.43023 9.26072 3.06694 10.2038 2.9452C12.169 2.69153 13.1003 5.34662 11.347 6.26974C10.4951 6.71826 10.1563 7.76584 10.5813 8.62971C11.4599 10.4155 9.21912 12.105 7.75785 10.7538L7.63432 10.6396C6.93426 9.99231 5.8541 9.99231 5.15404 10.6396L5.03052 10.7538C3.56925 12.105 1.3285 10.4155 2.20709 8.62971C2.6321 7.76584 2.29329 6.71826 1.44138 6.26974C-0.311963 5.34662 0.619326 2.69153 2.58453 2.9452C3.52765 3.06694 4.41802 2.43023 4.59504 1.49591Z" fill="#E9FFDE"/>
</svg>
