<svg width="43" height="43" viewBox="0 0 43 43" fill="none" xmlns="http://www.w3.org/2000/svg">
<g clip-path="url(#clip0)">
<path d="M21.4967 42.9406C33.1854 42.9406 42.661 33.5255 42.661 21.9113C42.661 10.2972 33.1854 0.88208 21.4967 0.88208C9.80794 0.88208 0.332336 10.2972 0.332336 21.9113C0.332336 33.5255 9.80794 42.9406 21.4967 42.9406Z" fill="#4D76A1"/>
<path fill-rule="evenodd" clip-rule="evenodd" d="M20.6972 31.1345H22.3584C22.3584 31.1345 22.8602 31.0798 23.1163 30.8054C23.3521 30.5535 23.3446 30.0804 23.3446 30.0804C23.3446 30.0804 23.3121 27.8657 24.3466 27.5395C25.3664 27.2183 26.6759 29.68 28.0639 30.6266C29.1135 31.3429 29.911 31.1859 29.911 31.1859L33.6223 31.1345C33.6223 31.1345 35.5637 31.0157 34.6432 29.499C34.5677 29.3749 34.1071 28.377 31.8838 26.3265C29.5568 24.1803 29.8684 24.5275 32.6716 20.8152C34.3787 18.5544 35.0612 17.1741 34.8481 16.5829C34.6447 16.0199 33.3891 16.1687 33.3891 16.1687L29.2104 16.1946C29.2104 16.1946 28.9007 16.1526 28.6709 16.289C28.4465 16.4229 28.302 16.7348 28.302 16.7348C28.302 16.7348 27.6406 18.4843 26.7585 19.9721C24.8978 23.1116 24.1538 23.2773 23.8497 23.0824C23.1424 22.628 23.3189 21.2571 23.3189 20.2832C23.3189 17.2408 23.7833 15.9723 22.4146 15.6439C21.9604 15.5348 21.6261 15.4628 20.4645 15.4512C18.9735 15.4358 17.7115 15.4557 16.9969 15.8036C16.5216 16.0349 16.1549 16.5503 16.3782 16.5799C16.6544 16.6167 17.2799 16.7475 17.6115 17.1962C18.0397 17.775 18.0246 19.075 18.0246 19.075C18.0246 19.075 18.2706 22.6565 17.45 23.1015C16.8868 23.4066 16.1141 22.7836 14.4552 19.9354C13.6052 18.4764 12.9635 16.8637 12.9635 16.8637C12.9635 16.8637 12.8397 16.5623 12.619 16.4011C12.3512 16.2058 11.9769 16.1436 11.9769 16.1436L8.0061 16.1695C8.0061 16.1695 7.41001 16.186 7.19119 16.4435C6.99651 16.6725 7.17572 17.1464 7.17572 17.1464C7.17572 17.1464 10.2845 24.373 13.8044 28.0149C17.032 31.3538 20.6972 31.1345 20.6972 31.1345Z" fill="white"/>
</g>
<defs>
<clipPath id="clip0">
<rect width="42.3287" height="42.0585" fill="white" transform="translate(0.332336 0.88208)"/>
</clipPath>
</defs>
</svg>
